RBDS024runT35_grf
version=1
nRows=21
nColumns=19
inDegrees=no
endheader
time	ground_force_r_vx	ground_force_r_vy	ground_force_r_vz	ground_force_r_px	ground_force_r_py	ground_force_r_pz	ground_force_r_mx	ground_force_r_my	ground_force_r_mz	ground_force_l_vx	ground_force_l_vy	ground_force_l_vz	ground_force_l_px	ground_force_l_py	ground_force_l_pz	ground_force_l_mx	ground_force_l_my	ground_force_l_mz
     14.99900000	      0.00000000	      0.00000000	      0.00000000	      0.00000000	      0.00000000	      0.00000000	      0.00000000	      0.00000000	      0.00000000	    226.92157832	    647.08157989	    -30.85496517	      1.85867882	      0.00000000	      1.00518199	     -0.00000000	      2.57842436	     -0.00000000
     15.00000000	      0.00000000	      0.00000000	      0.00000000	      0.00000000	      0.00000000	      0.00000000	      0.00000000	      0.00000000	      0.00000000	    224.41426211	    626.23555036	    -31.02297177	      1.85583250	      0.00000000	      1.00507958	     -0.00000000	      2.49406106	     -0.00000000
     15.00100000	      0.00000000	      0.00000000	      0.00000000	      0.00000000	      0.00000000	      0.00000000	      0.00000000	      0.00000000	      0.00000000	    221.45146649	    606.18590973	    -31.02995622	      1.85308270	      0.00000000	      1.00495507	     -0.00000000	      2.39500189	     -0.00000000
     15.00200000	      0.00000000	      0.00000000	      0.00000000	      0.00000000	      0.00000000	      0.00000000	      0.00000000	      0.00000000	      0.00000000	    218.48867087	    586.13626911	    -31.03694068	      1.85033290	      0.00000000	      1.00483055	     -0.00000000	      2.29594272	     -0.00000000
     15.00300000	      0.00000000	      0.00000000	      0.00000000	      0.00000000	      0.00000000	      0.00000000	      0.00000000	      0.00000000	      0.00000000	    215.52587524	    566.08662849	    -31.04392513	      1.84758310	      0.00000000	      1.00470603	     -0.00000000	      2.19688355	     -0.00000000
     15.00400000	      0.00000000	      0.00000000	      0.00000000	      0.00000000	      0.00000000	      0.00000000	      0.00000000	      0.00000000	      0.00000000	    212.29255821	    546.63952500	    -30.94603218	      1.84490683	      0.00000000	      1.00456694	     -0.00000000	      2.08830864	     -0.00000000
     15.00500000	      0.00000000	      0.00000000	      0.00000000	      0.00000000	      0.00000000	      0.00000000	      0.00000000	      0.00000000	      0.00000000	    208.92398046	    527.49369009	    -30.79570053	      1.84226732	      0.00000000	      1.00442056	     -0.00000000	      1.97497585	     -0.00000000
     15.00600000	      0.00000000	      0.00000000	      0.00000000	      0.00000000	      0.00000000	      0.00000000	      0.00000000	      0.00000000	      0.00000000	    205.55540272	    508.34785517	    -30.64536889	      1.83962781	      0.00000000	      1.00427418	     -0.00000000	      1.86164306	     -0.00000000
     15.00700000	      0.00000000	      0.00000000	      0.00000000	      0.00000000	      0.00000000	      0.00000000	      0.00000000	      0.00000000	      0.00000000	    202.07027861	    489.53420657	    -30.44524763	      1.83702947	      0.00000000	      1.00412079	     -0.00000000	      1.74381157	     -0.00000000
     15.00800000	      0.00000000	      0.00000000	      0.00000000	      0.00000000	      0.00000000	      0.00000000	      0.00000000	      0.00000000	      0.00000000	    198.35206178	    471.38493062	    -30.14554717	      1.83451345	      0.00000000	      1.00395338	     -0.00000000	      1.61698268	     -0.00000000
     15.00900000	      0.00000000	      0.00000000	      0.00000000	      0.00000000	      0.00000000	      0.00000000	      0.00000000	      0.00000000	      0.00000000	    194.63384495	    453.23565467	    -29.84584671	      1.83199744	      0.00000000	      1.00378598	     -0.00000000	      1.49015379	     -0.00000000
     15.01000000	      0.00000000	      0.00000000	      0.00000000	      0.00000000	      0.00000000	      0.00000000	      0.00000000	      0.00000000	      0.00000000	    190.91562812	    435.08637872	    -29.54614625	      1.82948143	      0.00000000	      1.00361857	     -0.00000000	      1.36332491	     -0.00000000
     15.01100000	      0.00000000	      0.00000000	      0.00000000	      0.00000000	      0.00000000	      0.00000000	      0.00000000	      0.00000000	      0.00000000	    186.90943160	    418.01051666	    -29.10899191	      1.82710115	      0.00000000	      1.00343158	     -0.00000000	      1.22414115	     -0.00000000
     15.01200000	      0.00000000	      0.00000000	      0.00000000	      0.00000000	      0.00000000	      0.00000000	      0.00000000	      0.00000000	      0.00000000	    182.90323508	    400.93465460	    -28.67183757	      1.82472088	      0.00000000	      1.00324459	     -0.00000000	      1.08495740	     -0.00000000
     15.01300000	      0.00000000	      0.00000000	      0.00000000	      0.00000000	      0.00000000	      0.00000000	      0.00000000	      0.00000000	      0.00000000	    178.89703856	    383.85879254	    -28.23468323	      1.82234060	      0.00000000	      1.00305760	     -0.00000000	      0.94577365	     -0.00000000
     15.01400000	      0.00000000	      0.00000000	      0.00000000	      0.00000000	      0.00000000	      0.00000000	      0.00000000	      0.00000000	      0.00000000	    174.74291547	    367.53862629	    -27.71619253	      1.82005806	      0.00000000	      1.00285892	     -0.00000000	      0.79935438	     -0.00000000
     15.01500000	      0.00000000	      0.00000000	      0.00000000	      0.00000000	      0.00000000	      0.00000000	      0.00000000	      0.00000000	      0.00000000	    170.51482909	    351.59630795	    -27.15703364	      1.81782439	      0.00000000	      1.00265441	     -0.00000000	      0.64931735	     -0.00000000
     15.01600000	      0.00000000	      0.00000000	      0.00000000	      0.00000000	      0.00000000	      0.00000000	      0.00000000	      0.00000000	      0.00000000	    166.28674271	    335.65398961	    -26.59787476	      1.81559072	      0.00000000	      1.00244989	     -0.00000000	      0.49928032	     -0.00000000
     15.01700000	      0.00000000	      0.00000000	      0.00000000	      0.00000000	      0.00000000	      0.00000000	      0.00000000	      0.00000000	      0.00000000	    162.00778953	    320.10385524	    -26.00418476	      1.81340895	      0.00000000	      1.00224041	     -0.00000000	      0.34624073	     -0.00000000
     15.01800000	      0.00000000	      0.00000000	      0.00000000	      0.00000000	      0.00000000	      0.00000000	      0.00000000	      0.00000000	      0.00000000	    157.62710276	    305.33808881	    -25.34143252	      1.81133097	      0.00000000	      1.00202102	     -0.00000000	      0.18719603	     -0.00000000
     15.01900000	      0.00000000	      0.00000000	      0.00000000	      0.00000000	      0.00000000	      0.00000000	      0.00000000	      0.00000000	      0.00000000	    153.24641599	    290.57232237	    -24.67868027	      1.80925300	      0.00000000	      1.00180162	     -0.00000000	      0.02815134	     -0.00000000
